<svg id="Layer_1" data-name="Layer 1" xmlns="http://www.w3.org/2000/svg" xmlns:xlink="http://www.w3.org/1999/xlink" viewBox="0 0 100 100"><defs><style>.cls-1{fill:url(#linear-gradient);}.cls-2{fill:url(#linear-gradient-2);}.cls-3{fill:url(#linear-gradient-3);}.cls-4{fill:url(#linear-gradient-4);}.cls-5{fill:url(#linear-gradient-5);}.cls-6{fill:url(#linear-gradient-6);}.cls-7{fill:url(#linear-gradient-7);}.cls-8{fill:url(#linear-gradient-8);}.cls-9{fill:url(#linear-gradient-9);}.cls-10{fill:url(#linear-gradient-10);}.cls-11{fill:url(#linear-gradient-11);}</style><linearGradient id="linear-gradient" x1="26.95" y1="30.01" x2="42.68" y2="30.01" gradientUnits="userSpaceOnUse"><stop offset="0" stop-color="#9e712d"/><stop offset="1" stop-color="#5a3621"/></linearGradient><linearGradient id="linear-gradient-2" x1="3269.89" y1="2231.9" x2="3279.55" y2="2231.9" gradientTransform="translate(-3566.71 1748.16) rotate(-59.39)" xlink:href="#linear-gradient"/><linearGradient id="linear-gradient-3" x1="1924.46" y1="791.84" x2="1934.12" y2="791.84" gradientTransform="matrix(0.88, -0.47, 0.47, 0.88, -2044.9, 258.19)" xlink:href="#linear-gradient"/><linearGradient id="linear-gradient-4" x1="-662.3" y1="434.5" x2="-652.64" y2="434.5" gradientTransform="translate(796.45 -225.71) rotate(14.58)" xlink:href="#linear-gradient"/><linearGradient id="linear-gradient-5" x1="-2709.01" y1="1952.5" x2="-2699.35" y2="1952.5" gradientTransform="matrix(0.56, 0.83, -0.83, 0.56, 3202.18, 1192.32)" xlink:href="#linear-gradient"/><linearGradient id="linear-gradient-6" x1="2385.03" y1="1113.98" x2="2400.76" y2="1113.98" gradientTransform="matrix(0.8, -0.6, 0.6, 0.8, -2566.03, 595.94)" xlink:href="#linear-gradient"/><linearGradient id="linear-gradient-7" x1="3748.89" y1="4068.81" x2="3764.61" y2="4068.81" gradientTransform="translate(-4283.52 3567.88) rotate(-86.31)" xlink:href="#linear-gradient"/><linearGradient id="linear-gradient-8" x1="-2139.83" y1="1304.22" x2="-2124.1" y2="1304.22" gradientTransform="matrix(0.74, 0.67, -0.67, 0.74, 2515.94, 496.6)" xlink:href="#linear-gradient"/><linearGradient id="linear-gradient-9" x1="-3201.83" y1="3516.37" x2="-3186.11" y2="3516.37" gradientTransform="translate(4009.41 2715.98) rotate(82.08)" xlink:href="#linear-gradient"/><linearGradient id="linear-gradient-10" x1="30.67" y1="63.49" x2="77.08" y2="63.49" xlink:href="#linear-gradient"/><linearGradient id="linear-gradient-11" x1="41.51" y1="63.8" x2="76.82" y2="63.8" xlink:href="#linear-gradient"/></defs><path class="cls-1" d="M34.86,27.42c1.72,1.22,3.67,2,5.61,3.89s2.35,3.17,2.17,5.83c-.68,2.67-1.22,2.62-2,1.77s-3-3.44-5.11-4.43-6.46-3.85-7.28-7.24-1-4.56-1.26-5.65.26-1.26.87-.67a53.74,53.74,0,0,0,4.55,4.61C34,26.79,34.86,27.42,34.86,27.42Z"/><path class="cls-2" d="M20.26,65.33a22.41,22.41,0,0,1,3.81-1.74,3.75,3.75,0,0,1,3.76.67c1.2,1.2,1,1.47.31,1.61a12.09,12.09,0,0,0-3.94,1.31C23,68,20.15,69.4,18.1,68.77s-2.74-.88-3.38-1.1-.58-.54-.08-.68a29.81,29.81,0,0,0,3.85-1C19.64,65.61,20.26,65.33,20.26,65.33Z"/><path class="cls-3" d="M28.68,41.23a22.33,22.33,0,0,1,4.16.48,3.78,3.78,0,0,1,2.87,2.52c.41,1.64.1,1.78-.56,1.54a12.26,12.26,0,0,0-4.06-.92c-1.41.07-4.61-.2-6-1.8s-1.89-2.16-2.33-2.69-.22-.75.28-.61a33,33,0,0,0,3.8,1.17C28,41.15,28.68,41.23,28.68,41.23Z"/><path class="cls-4" d="M51.18,27.7a22.17,22.17,0,0,1,2.74,3.18,3.76,3.76,0,0,1,.38,3.8c-.81,1.48-1.13,1.37-1.45.74A12.58,12.58,0,0,0,50.5,32c-1.09-.91-3.25-3.28-3.21-5.42s.09-2.88.12-3.56.35-.71.62-.26a33.53,33.53,0,0,0,2,3.44C50.74,27.18,51.18,27.7,51.18,27.7Z"/><path class="cls-5" d="M76.34,31.44a22,22,0,0,1-.06,4.19A3.77,3.77,0,0,1,74,38.73c-1.59.57-1.75.28-1.58-.41A12.22,12.22,0,0,0,73,34.2c-.21-1.4-.25-4.61,1.2-6.19s2-2.09,2.45-2.58.74-.29.64.22a31.82,31.82,0,0,0-.79,3.9C76.36,30.76,76.34,31.44,76.34,31.44Z"/><path class="cls-6" d="M15.26,49.78c2.11-.05,4.13-.6,6.82-.25s3.78,1.12,5.24,3.36c1.05,2.54.59,2.83-.54,2.61S22.3,54.56,20,55s-7.48.8-10.16-1.43-3.57-3-4.41-3.76-.54-1.16.3-1.06a52.07,52.07,0,0,0,6.4,1C14.16,49.82,15.26,49.78,15.26,49.78Z"/><path class="cls-7" d="M16.3,80.87c1.32-1.64,2.22-3.53,4.24-5.34s3.31-2.15,6-1.79c2.61.84,2.53,1.38,1.63,2.09s-3.63,2.8-4.75,4.82-4.25,6.2-7.69,6.79-4.62.75-5.72.9-1.24-.34-.61-.92a52,52,0,0,0,4.88-4.24C15.61,81.73,16.3,80.87,16.3,80.87Z"/><path class="cls-8" d="M63.9,20.35c.45,2.06,1.36,3.94,1.52,6.65s-.4,3.92-2.33,5.77c-2.3,1.51-2.67,1.11-2.66,0s.08-4.58-.78-6.72-2.19-7.19-.5-10.24,2.31-4.08,2.87-5,1-.75,1.1.09a52.43,52.43,0,0,0,.26,6.47C63.66,19.27,63.9,20.35,63.9,20.35Z"/><path class="cls-9" d="M89.28,36.35c-1,1.87-1.47,3.9-3.08,6.09s-2.81,2.77-5.47,3c-2.74-.3-2.77-.84-2-1.72s3-3.48,3.68-5.67,2.91-6.93,6.16-8.21,4.38-1.66,5.42-2,1.29.09.79.78a53,53,0,0,0-3.94,5.14C89.78,35.37,89.28,36.35,89.28,36.35Z"/><path class="cls-10" d="M35.89,64.64A24.48,24.48,0,0,1,76.7,46.58a.23.23,0,0,0,.33-.32,26.48,26.48,0,0,0-26.58-8.35A25.9,25.9,0,0,0,31.34,57.48,26.42,26.42,0,0,0,62,89.41a.08.08,0,0,0,0-.16c-.52,0-1.05,0-1.59,0A24.49,24.49,0,0,1,35.89,64.64Z"/><path class="cls-11" d="M51.32,73.85h-3A10.56,10.56,0,0,0,50.7,75a7.71,7.71,0,0,0,5.92-.77c2.94-1.67,3.17-4.34,3.21-6.1s-1.72-5.61-6.78-5.84c-5.06,0-8.36,1.73-10.8,6.65a9.14,9.14,0,0,0,2.12,10.22c2.22,2.12,8.66,3.14,11.08,3.11,6.2-.06,11.89-5.6,12.56-11.12s-3.25-9.58-5.15-11.07c-1.45-1.14-3.55-2.8-4.77-4a3.07,3.07,0,0,1-.89-2.65,3.22,3.22,0,0,1,3-2.73c3.39-.54,4.25.15,6.24,1.46s.63,2.29.09,2.88-1.9,2.26-1.9,3.57a4.4,4.4,0,0,0,1,3.17,10.72,10.72,0,0,0,4.25,2.35c2.12.68,1-.5.77-.95a1.8,1.8,0,0,1,.22-2.26,64.14,64.14,0,0,0,5-5.88c1-1.58,1.63-3.84,0-4.92s-2.25-1.59-2.62-1.86-.78-.67-.77.77c0,.54,0,1.45-.58,1.49s-.53-1.53-1.68-2.26A16,16,0,0,0,63.4,45.6c-2.92-.28-3.21-.41-5.56,0s-6.41,2.23-7.45,5.49a2.43,2.43,0,0,0-.11.49A5.88,5.88,0,0,0,50.64,54c.58,2.11,4.67,5.32,6.84,7.76S64.83,66,61.75,72.51c-2.21,6.53-9.26,7.57-12.25,5.4s-3.25-4.74-2-7.34c1.14-2.3,4.37-4,6.08-2.26,1.93,1.93.22,3.92-.87,5A2.36,2.36,0,0,1,51.32,73.85Z"/></svg>